<svg height="496pt" viewBox="0 0 496 496" width="496pt" xmlns="http://www.w3.org/2000/svg"><path d="m448 48v-24c0-13.230469-10.769531-24-24-24h-32c-13.230469 0-24 10.769531-24 24v24h-195.558594l-76.441406 84.929688v27.070312h-96v208h96v128h400v-448zm-64 192v-128h16v128zm41.054688 16-17.054688 25.574219-17.054688-25.574219zm6.945312-16h-16v-128h16zm0-144h-48v-16h48zm-40-80h32c4.414062 0 8 3.59375 8 8v40h-48v-40c0-4.40625 3.585938-8 8-8zm-224 60.847656v51.152344h-46.039062zm-152 99.152344h320v176h-320zm464 304h-368v-112h240v-208h-240v-16h72v-80h184v186.425781l40 60 40-60v-186.425781h32zm0 0"/><path d="m200 80h152v16h-152zm0 0"/><path d="m200 112h152v16h-152zm0 0"/><path d="m128 384h336v16h-336zm0 0"/><path d="m128 416h16v16h-16zm0 0"/><path d="m160 416h304v16h-304zm0 0"/><path d="m128 448h304v16h-304zm0 0"/><path d="m448 448h16v16h-16zm0 0"/><path d="m184 209.136719v-17.136719h-16v17.136719c-13.769531 3.574219-24 16-24 30.863281 0 17.648438 14.351562 32 32 32 8.824219 0 16 7.175781 16 16s-7.175781 16-16 16-16-7.175781-16-16v-8h-16v8c0 14.863281 10.230469 27.289062 24 30.863281v17.136719h16v-17.136719c13.769531-3.574219 24-16 24-30.863281 0-17.648438-14.351562-32-32-32-8.824219 0-16-7.175781-16-16s7.175781-16 16-16 16 7.175781 16 16v8h16v-8c0-14.863281-10.230469-27.289062-24-30.863281zm0 0"/><path d="m304 256h16v16h-16zm0 0"/><path d="m32 256h16v16h-16zm0 0"/><path d="m272 256h16v16h-16zm0 0"/><path d="m240 256h16v16h-16zm0 0"/><path d="m64 256h16v16h-16zm0 0"/><path d="m96 256h16v16h-16zm0 0"/></svg>